<?xml version="1.0" standalone="no"?><!DOCTYPE svg PUBLIC "-//W3C//DTD SVG 1.1//EN" "http://www.w3.org/Graphics/SVG/1.1/DTD/svg11.dtd"><svg t="1682662656930" class="icon" viewBox="0 0 1024 1024" version="1.1" xmlns="http://www.w3.org/2000/svg" p-id="3002" width="400" height="400" xmlns:xlink="http://www.w3.org/1999/xlink"><path d="M512 1024c282.309 0 512-229.693 512-512S794.309 0 512 0 0 229.693 0 512s229.691 512 512 512z m0-960c247.044 0 448.002 200.956 448.002 448 0 247.038-200.958 448.002-448.002 448.002S64 759.038 64 512C64 264.956 264.956 64 512 64z m0 135.995c102.048 0 184.801 82.054 184.801 183.303 0 101.218-82.716 183.265-184.801 183.265-102.078 0-184.769-82.053-184.769-183.265 0-101.25 82.723-183.303 184.769-183.303z m0 314.18c72.9 0 132.002-58.62 132.002-130.914 0-72.32-59.101-130.908-132.002-130.908S379.998 310.974 379.998 383.26c0 72.325 59.101 130.914 132.002 130.914z m0 0c145.826 0 264.004 117.217 264.004 261.829h-52.806c0-115.649-94.556-209.441-211.198-209.441s-211.202 93.79-211.202 209.44h-52.8c0-144.61 118.176-261.828 264.002-261.828z m0 0" p-id="3003" fill="#d81e06"></path></svg>