<?xml version="1.0" standalone="no"?><!DOCTYPE svg PUBLIC "-//W3C//DTD SVG 1.1//EN" "http://www.w3.org/Graphics/SVG/1.1/DTD/svg11.dtd"><svg t="1682665767053" class="icon" viewBox="0 0 1024 1024" version="1.1" xmlns="http://www.w3.org/2000/svg" p-id="1667" xmlns:xlink="http://www.w3.org/1999/xlink" width="600" height="600"><path d="M792.9 162.3c19.6 0 35.6 16 35.6 35.6V908c0 19.6-16 35.6-35.6 35.6H227.1c-19.6 0-35.6-16-35.6-35.6V197.9c0-19.6 16-35.6 35.6-35.6h565.8m0-16H227.1c-28.4 0-51.6 23.2-51.6 51.6V908c0 28.4 23.2 51.6 51.6 51.6h565.8c28.4 0 51.6-23.2 51.6-51.6V197.9c0-28.4-23.2-51.6-51.6-51.6z" fill="#581166" p-id="1668"></path><path d="M792.9 162.3c19.6 0 35.6 16 35.6 35.6V908c0 19.6-16 35.6-35.6 35.6H227.1c-19.6 0-35.6-16-35.6-35.6V197.9c0-19.6 16-35.6 35.6-35.6h565.8" fill="#FFA26E" p-id="1669"></path><path d="M750 221.1v663.7H270V221.1h480m12-16H258c-2.2 0-4 1.8-4 4v687.7c0 2.2 1.8 4 4 4h504c2.2 0 4-1.8 4-4V209.1c0-2.2-1.8-4-4-4z" fill="#581166" p-id="1670"></path><path d="M750 221.1v663.8H270V221.1h480" fill="#FFEDE6" p-id="1671"></path><path d="M509.5 80.1c38.1 0 71.8 24.3 83.8 60.4l3.6 11h37.5v76.9h-250v-76.9h37.5l3.6-11c12.2-36.1 45.9-60.4 84-60.4m0-16c-46.1 0-85.2 29.9-99 71.4h-42v108.9h282v-109h-42c-13.8-41.4-52.9-71.3-99-71.3z" fill="#581166" p-id="1672"></path><path d="M509.5 80.1c38.1 0 71.8 24.3 83.8 60.4l3.6 11h37.5v76.9h-250v-76.9h37.5l3.6-11c12.2-36.1 45.9-60.4 84-60.4" fill="#FF5855" p-id="1673"></path><path d="M509.5 154.2m-18.3 0a18.3 18.3 0 1 0 36.6 0 18.3 18.3 0 1 0-36.6 0Z" fill="#FFFFFF" p-id="1674"></path><path d="M674.5 704.1h-330c-4.4 0-8 3.6-8 8s3.6 8 8 8h330c4.4 0 8-3.6 8-8s-3.6-8-8-8zM674.5 762.1h-330c-4.4 0-8 3.6-8 8s3.6 8 8 8h330c4.4 0 8-3.6 8-8s-3.6-8-8-8zM489 551.1H344.5c-4.4 0-8 3.6-8 8s3.6 8 8 8H489c4.4 0 8-3.6 8-8s-3.6-8-8-8zM489 609.1H344.5c-4.4 0-8 3.6-8 8s3.6 8 8 8H489c4.4 0 8-3.6 8-8s-3.6-8-8-8z" fill="#581166" p-id="1675"></path></svg>