<?xml version="1.0" standalone="no"?><!DOCTYPE svg PUBLIC "-//W3C//DTD SVG 1.1//EN" "http://www.w3.org/Graphics/SVG/1.1/DTD/svg11.dtd"><svg t="1682669229515" class="icon" viewBox="0 0 1024 1024" version="1.1" xmlns="http://www.w3.org/2000/svg" p-id="10839" xmlns:xlink="http://www.w3.org/1999/xlink" width="600" height="600"><path d="M899.8 583.2l18.2 17.1-35.2 42.9-149.6 182.2-18.2-17.2zM854.2 540.4l21.8 20.4-184.8 225-21.8-20.4z" fill="#8ADCFF" p-id="10840"></path><path d="M854.2 540.4l28.7 26.9-6.9-6.5z" fill="#DED8C9" p-id="10841"></path><path d="M876 560.8l6.9 6.5 16.9 15.9-184.8 225-23.8-22.4z" fill="#00A4FF" p-id="10842"></path><path d="M889.2 428c11.9-1.7 23.9 1.6 33 10.1l39.9 37.5c18.2 17.1 18.2 49-0.1 71.3l-17.2 20.8L839 468.3l17.1-20.8c7.6-9.3 17.2-15.4 27.1-18.2 2-0.6 4-1 6-1.3z" fill="#F77490" p-id="10843"></path><path d="M839 468.3l105.7 99.4-26.8 32.5-35-32.9-28.6-27-23.8-22.3-18.3-17.2z" fill="#FDF17F" p-id="10844"></path><path d="M610.2 817.8l40 37.6-50.4 18.2z" fill="#778894" p-id="10845"></path><path d="M830.5 518l23.8 22.3-184.9 225.1-23.7-22.4z" fill="#00A4FF" p-id="10846"></path><path d="M812.3 500.9l18.2 17.1-184.8 225-18.2-17.1 9.3-11.4 66.6-81.1 39.4-48z" fill="#8ADCFF" p-id="10847"></path><path d="M627.4 725.8l63.8 60 23.8 22.4 18.1 17.1-82.9 30.1-50.4 18.2 50.4-18.2-40-37.6 11-58.6z" fill="#FDF17F" p-id="10848"></path><path d="M891.6 427.8c0.4 0 0.9-0.1 1.3-0.1h2.5c0.6 0 1.2 0 1.9 0.1h0.3c0.5 0 1 0.1 1.5 0.1 0.2 0 0.4 0 0.6 0.1 0.4 0 0.9 0.1 1.3 0.2 0.2 0 0.4 0.1 0.6 0.1 0.5 0.1 0.9 0.2 1.4 0.3 0.1 0 0.3 0.1 0.4 0.1 0.6 0.1 1.2 0.3 1.8 0.4 0.2 0 0.3 0.1 0.5 0.1 0.4 0.1 0.8 0.2 1.3 0.4 0.2 0.1 0.4 0.1 0.6 0.2 0.4 0.1 0.8 0.3 1.1 0.4 0.2 0.1 0.4 0.1 0.6 0.2 0.4 0.1 0.8 0.3 1.2 0.5 0.2 0.1 0.3 0.1 0.5 0.2 0.6 0.2 1.1 0.5 1.6 0.8 0.5 0.2 0.9 0.5 1.4 0.7l-182.3-99.2c-0.5-0.3-0.9-0.5-1.4-0.7-0.5-0.3-1.1-0.5-1.6-0.8-0.2-0.1-0.3-0.1-0.5-0.2-0.4-0.2-0.8-0.3-1.2-0.5-0.2-0.1-0.4-0.1-0.6-0.2-0.4-0.1-0.8-0.3-1.1-0.4-0.2-0.1-0.4-0.1-0.6-0.2-0.4-0.1-0.8-0.2-1.3-0.4-0.1 0-0.2-0.1-0.4-0.1h-0.1c-0.6-0.2-1.2-0.3-1.8-0.4-0.1 0-0.3-0.1-0.4-0.1-0.5-0.1-0.9-0.2-1.4-0.3-0.2 0-0.4-0.1-0.6-0.1-0.4-0.1-0.9-0.1-1.3-0.2-0.2 0-0.4 0-0.6-0.1-0.5 0-1-0.1-1.5-0.1h-0.3c-0.6 0-1.2 0-1.9-0.1h-2.5c-0.4 0-0.9 0.1-1.3 0.1h-0.6c-0.6 0.1-1.3 0.1-1.9 0.2-2 0.3-4 0.7-6 1.2-0.6 0.2-1.3 0.4-1.9 0.6-0.2 0.1-0.4 0.1-0.6 0.2-0.4 0.1-0.9 0.3-1.3 0.4-0.3 0.1-0.5 0.2-0.7 0.3-0.4 0.1-0.8 0.3-1.1 0.5-0.3 0.1-0.5 0.2-0.8 0.3-0.4 0.2-0.7 0.3-1.1 0.5-0.1 0-0.1 0.1-0.2 0.1l-0.6 0.3c-0.4 0.2-0.7 0.3-1.1 0.5-0.3 0.1-0.5 0.3-0.8 0.4-0.3 0.2-0.7 0.4-1 0.6-0.3 0.2-0.5 0.3-0.8 0.5-0.3 0.2-0.7 0.4-1 0.6-0.3 0.2-0.5 0.3-0.8 0.5-0.3 0.2-0.7 0.4-1 0.7-0.1 0.1-0.3 0.2-0.4 0.3-0.1 0.1-0.2 0.1-0.2 0.2-0.8 0.6-1.7 1.2-2.5 1.8-0.1 0.1-0.3 0.2-0.4 0.3-0.8 0.6-1.6 1.3-2.4 2l-0.1 0.1c-0.7 0.7-1.4 1.3-2.1 2l-0.5 0.5c-0.7 0.7-1.4 1.4-2.1 2.2-0.5 0.5-1 1.1-1.4 1.7l-17.1 20.8L839 468.3l17.1-20.8c0.5-0.6 0.9-1.1 1.4-1.7 0.7-0.8 1.4-1.5 2.1-2.2l0.5-0.5c0.7-0.7 1.4-1.4 2.1-2l0.2-0.2c0.8-0.7 1.6-1.4 2.4-2 0.1-0.1 0.2-0.2 0.4-0.3 0.8-0.6 1.6-1.3 2.5-1.8 0.2-0.2 0.4-0.3 0.7-0.5 0.3-0.2 0.7-0.4 1-0.7 0.3-0.2 0.5-0.3 0.8-0.5 0.3-0.2 0.7-0.4 1-0.6 0.3-0.2 0.5-0.3 0.8-0.5 0.3-0.2 0.7-0.4 1-0.6 0.3-0.1 0.5-0.3 0.8-0.4 0.4-0.2 0.7-0.4 1.1-0.5 0.3-0.1 0.5-0.3 0.8-0.4 0.4-0.2 0.7-0.3 1.1-0.5 0.3-0.1 0.5-0.2 0.8-0.3 0.4-0.2 0.8-0.3 1.1-0.5 0.2-0.1 0.5-0.2 0.7-0.3 0.4-0.2 0.8-0.3 1.3-0.4 0.2-0.1 0.4-0.1 0.6-0.2 0.6-0.2 1.3-0.4 1.9-0.6 2-0.6 4-1 6-1.2 0.6-0.1 1.3-0.2 1.9-0.2 0.1-0.1 0.3-0.1 0.5-0.1z" fill="#D30032" p-id="10849"></path><path d="M812.2 500.8l-182.3-99.2 26.7-32.5L839 468.3z" fill="#FFA300" p-id="10850"></path><path d="M599.8 873.6l-182.4-99.2 10.4-55.8 182.4 99.2z" fill="#49535A" p-id="10851"></path><path d="M629.9 401.7l-69.4 84.5-39.4 48-66.7 81.1-9.3 11.4 182.4 99.2 9.3-11.4 66.6-81.1 39.4-48 69.5-84.5z" fill="#00A4FF" p-id="10852"></path><path d="M445.1 626.6l-6.3 33.4-11 58.6 182.4 99.2 11-58.6 6.2-33.4z" fill="#FFA300" p-id="10853"></path><path d="M532.4 811.2c10.8-1.5 19.7 6.7 19.6 18.5-0.1 11.7-8.9 22.5-19.7 24l-168.5 23.7c-10.8 1.5-19.6-6.7-19.6-18.5 0-11.6 8.9-22.5 19.7-24l168.5-23.7z" fill="#91A0A7" p-id="10854"></path><path d="M791 171.7c0.5 0 0.9-0.1 1.4-0.1h4.8c0.6 0 1.3 0.1 1.9 0.2 0.2 0 0.4 0 0.6 0.1 0.5 0.1 0.9 0.1 1.4 0.2 0.2 0 0.4 0.1 0.7 0.1 0.4 0.1 0.8 0.1 1.3 0.2 0.2 0 0.4 0.1 0.6 0.1 0.5 0.1 0.9 0.2 1.4 0.3 0.1 0 0.3 0.1 0.4 0.1 0.6 0.2 1.2 0.3 1.8 0.5 0.2 0 0.3 0.1 0.5 0.2 0.5 0.1 0.9 0.3 1.4 0.5 0.2 0.1 0.4 0.1 0.6 0.2 0.4 0.2 0.8 0.3 1.2 0.5 0.2 0.1 0.4 0.2 0.6 0.2 0.5 0.2 1 0.5 1.5 0.7 0.1 0 0.1 0.1 0.2 0.1 0.5 0.2 1 0.5 1.5 0.8L632.2 77.4c-0.5-0.3-1-0.5-1.5-0.8-0.1 0-0.1 0-0.2-0.1-0.5-0.2-1-0.5-1.5-0.7-0.2-0.1-0.4-0.2-0.6-0.2-0.4-0.2-0.8-0.3-1.2-0.5-0.2-0.1-0.4-0.2-0.6-0.2-0.4-0.2-0.9-0.3-1.4-0.5-0.2 0-0.3-0.1-0.5-0.2-0.6-0.2-1.2-0.4-1.8-0.5h-0.1c-0.1 0-0.2-0.1-0.3-0.1-0.5-0.1-0.9-0.2-1.4-0.3-0.2 0-0.4-0.1-0.6-0.1-0.4-0.1-0.8-0.2-1.3-0.2-0.2 0-0.4-0.1-0.7-0.1-0.5-0.1-0.9-0.1-1.4-0.2-0.2 0-0.4 0-0.5-0.1-0.6-0.1-1.3-0.1-1.9-0.2h-4.8c-0.5 0-0.9 0.1-1.4 0.1-0.2 0-0.4 0-0.6 0.1-0.7 0.1-1.4 0.1-2 0.2l-77.4 10.9 182.3 99.2 77.4-10.9c0.7-0.1 1.4-0.2 2-0.2 0.3 0 0.6 0 0.8-0.1z" fill="#F7D59F" p-id="10855"></path><path d="M686.4 122.4c13.6-1.9 24.5 8.4 24.5 23.1l-0.1 37.5v15.6c0 14.7-11 28-24.6 30-13.6 1.9-24.5-8.4-24.5-23.1v-15.6l0.1-37.5c0-14.7 11-28.1 24.6-30z" fill="#50E6CC" p-id="10856"></path><path d="M696.5 559.8l-39.4 48L364.3 649c-10.8 1.5-19.6-6.7-19.6-18.5 0-11.6 8.9-22.5 19.7-24l332.1-46.7zM743.7 439c10.8-1.5 19.7 6.7 19.6 18.5 0 11.6-8.9 22.5-19.7 24l-379.2 53.3c-10.8 1.5-19.6-6.7-19.6-18.5 0-11.6 8.9-22.5 19.7-24L743.7 439z" fill="#91A0A7" p-id="10857"></path><path d="M814.5 176.6c-0.1-0.1-0.3-0.1-0.4-0.2-0.1 0-0.2-0.1-0.3-0.2-0.3-0.2-0.6-0.3-1-0.5-0.5-0.2-0.9-0.4-1.3-0.6-0.2-0.1-0.5-0.2-0.7-0.3-0.4-0.2-0.8-0.3-1.2-0.5-0.2-0.1-0.4-0.1-0.5-0.2h-0.1c-0.4-0.2-0.8-0.3-1.3-0.4-0.1 0-0.2-0.1-0.4-0.1-0.6-0.2-1.1-0.3-1.7-0.5-0.2 0-0.3-0.1-0.5-0.1h-0.1c-0.5-0.1-0.9-0.2-1.4-0.3-0.3-0.1-0.6-0.1-0.9-0.2-0.3-0.1-0.7-0.1-1-0.2-0.3 0-0.6-0.1-0.9-0.1-0.4 0-0.8-0.1-1.1-0.1-0.2 0-0.3 0-0.4-0.1h-1.4-5.8c-0.4 0-0.7 0-1.1 0.1-0.2 0-0.5 0-0.8 0.1-0.2 0-0.5 0.1-0.7 0.1-0.4 0-0.8 0.1-1.2 0.2l-77.4 10.9V199c0 14.7-11 28-24.6 30-13.6 1.9-24.6-8.3-24.5-23v-15.6L579.3 202v15.6c0 0.8 0 1.7-0.1 2.5v0.5c0 0.4-0.1 0.7-0.1 1.1 0 0.3-0.1 0.7-0.2 1-0.2 1-0.4 2-0.7 3-0.1 0.4-0.2 0.7-0.3 1.1-0.4 1.3-0.9 2.6-1.5 3.9-0.2 0.5-0.5 0.9-0.7 1.4 0 0.1-0.1 0.2-0.2 0.3-0.2 0.4-0.4 0.8-0.7 1.2 0 0.1-0.1 0.1-0.1 0.2-0.3 0.4-0.5 0.9-0.8 1.3-0.3 0.5-0.6 0.9-1 1.3-0.3 0.4-0.7 0.8-1 1.2l-0.1 0.1c-0.3 0.4-0.6 0.7-1 1.1l-0.2 0.2-1 1c-0.4 0.4-0.8 0.7-1.2 1.1-0.7 0.6-1.3 1.1-2 1.6-0.4 0.3-0.8 0.5-1.2 0.8-0.2 0.1-0.5 0.3-0.7 0.4-0.4 0.3-0.9 0.5-1.4 0.8-0.8 0.4-1.5 0.8-2.3 1.1-0.4 0.2-0.8 0.3-1.2 0.5-0.4 0.1-0.8 0.3-1.2 0.4-1.2 0.4-2.5 0.7-3.8 0.8-0.5 0.1-1.1 0.1-1.6 0.2h-0.8c-1 0-2 0-3-0.1l-2.1-0.3c-0.4-0.1-0.7-0.2-1-0.2-0.4-0.1-0.7-0.2-1-0.3-0.3-0.1-0.7-0.2-1-0.4-0.3-0.1-0.5-0.2-0.8-0.3-0.1-0.1-0.3-0.1-0.4-0.2-0.2-0.1-0.5-0.2-0.7-0.3-0.3-0.2-0.6-0.3-0.9-0.5-0.3-0.1-0.5-0.3-0.8-0.5-0.2-0.1-0.5-0.3-0.7-0.5-0.2-0.1-0.4-0.3-0.6-0.4-1-0.8-2-1.6-2.8-2.6-0.2-0.2-0.4-0.5-0.6-0.7-0.3-0.3-0.5-0.6-0.8-1-0.2-0.2-0.3-0.4-0.4-0.6-0.7-1-1.3-2-1.8-3.1-0.2-0.3-0.3-0.6-0.4-0.9-0.2-0.4-0.3-0.8-0.5-1.2-0.1-0.3-0.2-0.5-0.3-0.8-0.3-1-0.6-2.1-0.8-3.2 0-0.2-0.1-0.4-0.1-0.6 0-0.2-0.1-0.4-0.1-0.7v-0.3c0-0.3-0.1-0.6-0.1-0.9 0-0.5-0.1-1-0.1-1.5v-16.9l-82.6 11.6v15.6c0 0.8 0 1.6-0.1 2.3v0.1c0 0.2 0 0.5-0.1 0.7 0 0.3 0 0.5-0.1 0.8 0 0.2 0 0.4-0.1 0.6v0.2c0 0.3-0.1 0.5-0.1 0.8-0.1 0.4-0.2 0.8-0.3 1.3-0.1 0.5-0.2 0.9-0.3 1.4-0.1 0.3-0.2 0.7-0.3 1-0.2 0.5-0.3 1-0.5 1.4-0.1 0.2-0.2 0.5-0.3 0.7-0.1 0.2-0.2 0.5-0.3 0.7-0.2 0.5-0.4 0.9-0.6 1.4-0.2 0.5-0.4 0.9-0.7 1.3-0.2 0.4-0.5 0.9-0.7 1.3-0.2 0.4-0.5 0.8-0.8 1.3l-0.9 1.2c-0.3 0.3-0.5 0.7-0.8 1 0 0.1-0.1 0.1-0.2 0.2-0.6 0.8-1.2 1.5-1.9 2.2l-1 1c-0.3 0.3-0.6 0.5-0.9 0.8-0.3 0.3-0.7 0.6-1 0.8-0.3 0.3-0.7 0.5-1.1 0.8l-0.9 0.6c-0.1 0.1-0.2 0.1-0.3 0.2-0.3 0.2-0.6 0.4-1 0.6-0.4 0.2-0.7 0.4-1.1 0.6-0.4 0.2-0.8 0.4-1.1 0.6-0.4 0.2-0.8 0.4-1.2 0.5-1.2 0.5-2.5 0.9-3.8 1.2-0.3 0.1-0.6 0.2-0.9 0.2-0.1 0-0.2 0-0.3 0.1-0.4 0.1-0.8 0.1-1.1 0.2-13.6 1.9-24.5-8.4-24.5-23.1v-15.6l-77.2 10.8c-0.8 0.1-1.5 0.2-2.3 0.4-0.2 0-0.4 0.1-0.6 0.1-0.2 0-0.5 0.1-0.7 0.2-0.3 0.1-0.7 0.1-1 0.2-0.2 0.1-0.4 0.1-0.6 0.2-0.7 0.2-1.5 0.4-2.2 0.6-0.1 0-0.2 0.1-0.3 0.1-0.6 0.2-1.3 0.4-1.9 0.6-0.2 0.1-0.4 0.2-0.6 0.2-0.5 0.2-1.1 0.4-1.7 0.6-0.2 0.1-0.3 0.1-0.5 0.2l-2.1 0.9c-0.2 0.1-0.5 0.2-0.7 0.4-0.5 0.2-1 0.5-1.4 0.7-0.3 0.1-0.6 0.3-0.8 0.5-0.4 0.2-0.9 0.5-1.3 0.7-0.3 0.2-0.6 0.3-0.9 0.5-0.4 0.2-0.8 0.5-1.2 0.8l-0.9 0.6c-0.3 0.2-0.6 0.4-0.9 0.7-0.9 0.6-1.7 1.2-2.5 1.9-0.1 0-0.1 0.1-0.2 0.2-0.3 0.3-0.7 0.5-1 0.8-0.2 0.1-0.3 0.3-0.5 0.4-0.4 0.3-0.7 0.6-1.1 0.9-0.2 0.2-0.5 0.4-0.7 0.6l-0.3 0.3c-0.5 0.5-1 0.9-1.5 1.4l-0.5 0.5c-0.8 0.8-1.5 1.5-2.2 2.3-0.2 0.2-0.3 0.3-0.4 0.5-0.3 0.3-0.6 0.6-0.8 1-0.3 0.3-0.5 0.7-0.8 1-0.2 0.3-0.4 0.5-0.6 0.8-0.5 0.7-1 1.4-1.5 2v0.1c-0.1 0.2-0.2 0.3-0.4 0.5-0.6 0.9-1.3 1.9-1.9 2.8-0.1 0.2-0.3 0.5-0.4 0.7 0 0.1-0.1 0.1-0.1 0.2-0.2 0.4-0.5 0.8-0.7 1.2-0.2 0.3-0.4 0.7-0.5 1-0.1 0.3-0.3 0.5-0.4 0.8-0.1 0.1-0.1 0.3-0.2 0.4-0.1 0.1-0.1 0.3-0.2 0.4-0.2 0.5-0.5 0.9-0.7 1.4-0.1 0.3-0.3 0.6-0.4 0.9-0.2 0.5-0.4 1-0.7 1.4-0.1 0.3-0.2 0.6-0.4 0.9-0.2 0.5-0.4 1.1-0.6 1.6-0.1 0.2-0.2 0.5-0.3 0.7-0.1 0.2-0.2 0.5-0.2 0.7-0.2 0.6-0.4 1.1-0.6 1.7v0.2c0 0.1 0 0.1-0.1 0.2-0.2 0.8-0.5 1.6-0.7 2.4-0.1 0.5-0.2 0.9-0.4 1.4l-0.3 1.2-0.3 1.5c-0.1 0.4-0.2 0.8-0.2 1.2-0.1 0.5-0.2 1-0.2 1.5 0 0.2-0.1 0.4-0.1 0.6 0 0.2-0.1 0.4-0.1 0.6-0.1 0.5-0.1 1.1-0.2 1.6 0 0.4-0.1 0.7-0.1 1.1-0.1 0.6-0.1 1.2-0.1 1.8 0 0.3-0.1 0.6-0.1 0.9-0.1 0.9-0.1 1.8-0.1 2.7l-0.2 49-1.1 587.8v1.9c0 0.6 0 1.2 0.1 1.7 0 0.6 0.1 1.1 0.1 1.7 0.1 0.6 0.1 1.3 0.2 1.9 0.1 0.5 0.1 1 0.2 1.4 0.1 0.5 0.2 1.1 0.3 1.6 0.1 0.5 0.2 1.1 0.3 1.6 0.1 0.5 0.2 1.1 0.4 1.6 0.1 0.4 0.2 0.9 0.4 1.3 0.1 0.3 0.1 0.5 0.2 0.8 0.1 0.3 0.2 0.7 0.3 1 0.7 2.1 1.5 4.1 2.4 6l0.6 1.2c0.9 1.8 2 3.5 3.2 5.2l0.9 1.2c1.2 1.6 2.5 3.1 3.9 4.5l1 1c0.7 0.6 1.4 1.3 2.1 1.9 0.7 0.6 1.4 1.1 2.2 1.7l2.7 1.8c0.2 0.1 0.4 0.2 0.5 0.3l0.5 0.3 0.2 0.1c7.6 4.1 16.6 5.9 26.2 4.5l467.1-65.6c27.1-3.8 49.2-30.6 49.2-59.9l0.3-155.2-103.4 124.9-0.1-0.1-82.9 30.1-50.4 18.2-46.3-25.7 10.4-55.8 11-58.6-210.8 29.6c-10.8 1.5-19.7-6.8-19.6-18.5 0-11.6 8.8-22.5 19.7-24l226.3-31.8 66.6-81.1-292.8 41.2c-10.8 1.5-19.6-6.8-19.6-18.5 0-0.8 0-1.5 0.1-2.3 0-0.5 0.1-1 0.2-1.5 0-0.1 0-0.3 0.1-0.4 0-0.1 0-0.2 0.1-0.3 0.1-0.6 0.3-1.2 0.4-1.9 0.1-0.4 0.2-0.9 0.4-1.3 0.1-0.2 0.2-0.5 0.3-0.8 0.1-0.3 0.2-0.7 0.4-1 0.3-0.7 0.6-1.3 0.9-1.9 0.2-0.4 0.4-0.7 0.6-1.1 0.1-0.2 0.3-0.5 0.4-0.7 0.2-0.3 0.4-0.6 0.6-1 0-0.1 0.1-0.1 0.2-0.2 0.2-0.3 0.4-0.6 0.6-0.8 0.1-0.1 0.2-0.3 0.3-0.4 0.2-0.3 0.5-0.6 0.8-0.9 0.3-0.4 0.6-0.7 1-1.1l0.3-0.3c0.3-0.3 0.7-0.6 1-0.9 0.4-0.3 0.8-0.6 1.1-0.9 0.3-0.2 0.6-0.5 0.9-0.7 0.4-0.2 0.7-0.5 1.1-0.7 0.4-0.2 0.7-0.4 1.1-0.6 0.3-0.1 0.5-0.3 0.8-0.4l0.6-0.3c0.2-0.1 0.5-0.2 0.7-0.3 0.2-0.1 0.4-0.2 0.7-0.3h0.1l0.9-0.3c0.2-0.1 0.5-0.1 0.7-0.2 0.4-0.1 0.9-0.2 1.3-0.3 0.3-0.1 0.7-0.1 1-0.2l332.1-46.7 69.4-84.5v-0.1l26.8-32.5 17.1-20.8c7.6-9.3 17.2-15.4 27.1-18.2l0.3-105.8 0.2-79.6c0-18.9-9.2-34.2-22.9-41.6z m-470 678.8c0-0.2 0.1-0.4 0.1-0.7 0.1-0.3 0.1-0.7 0.2-1l0.3-1.2v-0.1c0.1-0.4 0.2-0.8 0.3-1.1 0.1-0.4 0.3-0.8 0.4-1.2v-0.1c0.1-0.4 0.3-0.7 0.5-1.1 0.2-0.4 0.4-0.8 0.5-1.1 0.1-0.3 0.3-0.5 0.4-0.8 0.1-0.1 0.1-0.3 0.2-0.4 0.2-0.3 0.4-0.6 0.6-1l0.6-0.9c0.1-0.2 0.3-0.4 0.4-0.6 0.1-0.1 0.2-0.2 0.3-0.4 0.1-0.2 0.3-0.4 0.4-0.5 0.1-0.1 0.2-0.2 0.2-0.3 0.2-0.2 0.3-0.4 0.5-0.6 0.5-0.5 1-1.1 1.5-1.6s1-0.9 1.6-1.4c0.3-0.2 0.5-0.4 0.8-0.6 0.3-0.2 0.6-0.5 0.9-0.7 0.3-0.2 0.5-0.3 0.8-0.5 0.3-0.2 0.6-0.3 0.9-0.5 0.5-0.3 1-0.5 1.5-0.7 0.2-0.1 0.4-0.2 0.5-0.2l0.9-0.3 0.9-0.3 0.9-0.3c0.4-0.1 0.8-0.2 1.1-0.2 0.3-0.1 0.6-0.1 1-0.2l168.5-23.7c10.8-1.5 19.7 6.8 19.6 18.5-0.1 11.7-8.9 22.5-19.7 24l-168.5 23.7c-5.2 0.7-9.9-0.8-13.5-3.9l-0.6-0.6-0.6-0.6c-0.4-0.4-0.8-0.8-1.1-1.3-0.2-0.2-0.3-0.5-0.5-0.7l-0.9-1.5c-0.1-0.2-0.3-0.5-0.4-0.8-0.1-0.3-0.3-0.5-0.4-0.8-0.1-0.3-0.2-0.5-0.3-0.8-0.1-0.3-0.2-0.6-0.3-1-0.2-0.5-0.3-1.1-0.5-1.7-0.1-0.3-0.1-0.6-0.2-0.9s-0.1-0.6-0.2-1c-0.1-0.6-0.1-1.2-0.2-1.9v-1.1c0-0.7 0-1.5 0.1-2.2 0-0.3 0.1-0.6 0.1-0.8 0.4 0 0.4-0.1 0.4-0.3z m418.8-396.2c0 0.2 0 0.5-0.1 0.7v0.4c0 0.4-0.1 0.7-0.2 1.1v0.1c0 0.3-0.1 0.5-0.2 0.8 0 0.2-0.1 0.5-0.2 0.7-0.2 0.8-0.4 1.6-0.7 2.3-0.1 0.3-0.2 0.6-0.3 1 0 0.1-0.1 0.2-0.1 0.3-0.1 0.3-0.3 0.6-0.4 0.9-0.2 0.4-0.3 0.8-0.5 1.1-0.2 0.3-0.3 0.7-0.5 1-0.4 0.8-0.9 1.6-1.5 2.3-0.2 0.3-0.4 0.6-0.7 0.9l-0.1 0.1c-0.2 0.3-0.5 0.6-0.7 0.9l-0.1 0.1c-0.2 0.3-0.5 0.6-0.8 0.9l-0.9 0.9c-0.5 0.5-1 0.9-1.6 1.4-0.5 0.4-1.1 0.8-1.7 1.2-0.3 0.2-0.6 0.4-0.9 0.5-0.3 0.2-0.6 0.4-0.9 0.5-0.2 0.1-0.5 0.3-0.8 0.4-0.1 0-0.1 0.1-0.2 0.1-0.3 0.1-0.6 0.3-0.9 0.4-0.3 0.1-0.6 0.3-0.9 0.4-0.6 0.2-1.3 0.4-1.9 0.6h-0.1c-0.3 0.1-0.6 0.1-0.9 0.2-0.3 0.1-0.7 0.1-1 0.2l-379.2 53.3c-0.9 0.1-1.7 0.2-2.5 0.2h-0.9c-0.4 0-0.8 0-1.2-0.1-0.2 0-0.5-0.1-0.7-0.1-0.3-0.1-0.6-0.1-0.9-0.2l-1.2-0.3-0.9-0.3c-0.6-0.2-1.2-0.5-1.8-0.8-0.3-0.1-0.6-0.3-0.8-0.5-0.3-0.2-0.5-0.3-0.8-0.5-0.2-0.1-0.4-0.3-0.6-0.4-0.1-0.1-0.2-0.2-0.4-0.3-0.2-0.2-0.4-0.3-0.6-0.5-0.2-0.2-0.5-0.4-0.7-0.7l-0.6-0.6c-0.4-0.4-0.8-0.8-1.1-1.3-0.2-0.2-0.3-0.5-0.5-0.7-0.1-0.2-0.2-0.3-0.4-0.5-0.1-0.2-0.3-0.4-0.4-0.6l-0.3-0.6c-0.1-0.2-0.2-0.3-0.3-0.5-0.4-0.8-0.7-1.6-1-2.5l-0.3-0.9c-0.1-0.3-0.2-0.6-0.2-0.9s-0.1-0.6-0.2-0.9c-0.1-0.2-0.1-0.5-0.1-0.7v-0.2c-0.1-0.6-0.1-1.2-0.2-1.9v-1.1c0-2.9 0.6-5.8 1.6-8.4 0.2-0.7 0.5-1.3 0.8-2 0.3-0.6 0.6-1.3 1-1.9 0.2-0.4 0.5-0.8 0.7-1.1l0.6-0.9c0.1-0.1 0.2-0.3 0.3-0.4 0.2-0.3 0.4-0.6 0.7-0.9 0.5-0.6 1-1.2 1.6-1.8l0.3-0.3c0.2-0.2 0.5-0.5 0.8-0.7 0.2-0.2 0.4-0.3 0.6-0.5 0.2-0.2 0.4-0.4 0.6-0.5 0.9-0.7 1.8-1.3 2.7-1.9l0.6-0.3c0.7-0.4 1.3-0.7 2-1 0.3-0.1 0.6-0.3 1-0.4l0.9-0.3c0.4-0.1 0.7-0.2 1.1-0.3 0.3-0.1 0.6-0.2 0.9-0.2h0.2c0.3-0.1 0.6-0.1 0.9-0.2L743.8 439c10.8-1.5 19.7 6.8 19.6 18.5 0 0.6 0 1.1-0.1 1.7z m21.1-91.3c0 6.3-4.8 12.2-10.7 13l-438.8 61.7c-3.2 0.5-6-0.7-8-2.8-0.2-0.2-0.4-0.5-0.6-0.7-0.2-0.2-0.4-0.5-0.5-0.8-0.1-0.2-0.2-0.4-0.4-0.6l-0.3-0.6-0.3-0.9c-0.1-0.2-0.1-0.4-0.2-0.5 0-0.1-0.1-0.3-0.1-0.4v-0.2c0-0.2-0.1-0.4-0.1-0.6 0-0.2-0.1-0.5-0.1-0.8v-0.1-0.9l0.2-100.1v-0.6-0.1c0-0.4 0.1-0.7 0.1-1.1 0-0.2 0.1-0.5 0.1-0.7 0-0.2 0.1-0.5 0.2-0.7 0-0.1 0.1-0.3 0.1-0.4 0-0.2 0.1-0.4 0.2-0.5 0.1-0.3 0.2-0.6 0.4-0.9 0.1-0.2 0.2-0.5 0.3-0.7 0.1-0.3 0.3-0.6 0.4-0.8 0.1-0.2 0.3-0.5 0.4-0.7 0.2-0.2 0.3-0.5 0.5-0.7 0.2-0.2 0.3-0.5 0.5-0.7 0.2-0.2 0.4-0.4 0.6-0.7l0.6-0.6 0.6-0.6c0.2-0.2 0.4-0.3 0.7-0.5 0.1-0.1 0.3-0.2 0.5-0.3 0.1-0.1 0.3-0.2 0.4-0.3 0.1-0.1 0.2-0.1 0.2-0.1 0.2-0.1 0.4-0.2 0.5-0.3l0.6-0.3c0.1-0.1 0.2-0.1 0.3-0.2 0.2-0.1 0.4-0.1 0.6-0.2 0.1 0 0.2-0.1 0.2-0.1 0.2-0.1 0.4-0.1 0.5-0.1 0.4-0.1 0.7-0.2 1.1-0.2l438.8-61.7c3.8-0.5 7.1 1.1 9 4.1 0.1 0.2 0.2 0.4 0.3 0.5l0.3 0.6c0.1 0.1 0.1 0.3 0.2 0.4 0 0.1 0.1 0.2 0.1 0.3v0.1c0 0.1 0.1 0.3 0.2 0.5s0.1 0.4 0.2 0.6c0.1 0.3 0.1 0.5 0.2 0.8 0 0.2 0.1 0.4 0.1 0.6v1.4l-0.1 100.2z" fill="#FEF8E6" p-id="10858"></path><path d="M590.5 688.9l-9.3 11.3-6.3 33.3-210.8 29.6c-10.8 1.5-19.6-6.7-19.6-18.5 0-11.6 8.9-22.5 19.7-24l226.3-31.7z" fill="#91A0A7" p-id="10859"></path><path d="M661.9 149.6c0-0.2 0-0.4 0.1-0.5 0-0.3 0.1-0.5 0.1-0.8 0-0.2 0.1-0.4 0.1-0.6 0-0.3 0.1-0.5 0.1-0.8 0-0.2 0.1-0.4 0.1-0.6 0.1-0.2 0.1-0.5 0.2-0.7 0-0.2 0.1-0.4 0.1-0.6 0.1-0.2 0.1-0.5 0.2-0.7 0.1-0.2 0.1-0.4 0.2-0.6 0.1-0.2 0.1-0.5 0.2-0.7 0.1-0.2 0.1-0.4 0.2-0.6 0.1-0.2 0.1-0.4 0.2-0.6 0.2-0.6 0.5-1.2 0.8-1.9 0.1-0.1 0.1-0.2 0.2-0.3l0.9-1.8c0.1-0.1 0.1-0.2 0.2-0.4 0.2-0.4 0.4-0.8 0.7-1.2 0.1-0.1 0.1-0.2 0.2-0.3 0.3-0.5 0.6-0.9 0.9-1.4 0.1-0.1 0.1-0.2 0.2-0.3 0.2-0.3 0.5-0.7 0.8-1 0.1-0.1 0.2-0.3 0.3-0.4 0.3-0.3 0.5-0.7 0.8-1 0.1-0.1 0.1-0.2 0.2-0.3 0.4-0.4 0.7-0.8 1.1-1.2l0.3-0.3c0.3-0.3 0.6-0.6 0.9-0.8l0.3-0.3c0.4-0.4 0.8-0.7 1.3-1.1h0.1c0.4-0.3 0.9-0.6 1.3-1 0.1-0.1 0.2-0.2 0.3-0.2 0.6-0.4 1.1-0.7 1.7-1.1 0.1-0.1 0.2-0.1 0.3-0.1 0.6-0.3 1.2-0.7 1.8-1 0.1 0 0.1 0 0.2-0.1 0.5-0.2 0.9-0.4 1.4-0.6 0.1-0.1 0.3-0.1 0.4-0.2 0.5-0.2 1.1-0.4 1.6-0.5h0.1c0.5-0.2 1-0.3 1.5-0.4 0.1 0 0.3-0.1 0.4-0.1 0.6-0.1 1.1-0.2 1.7-0.3 0.7-0.1 1.4-0.2 2-0.2h2.7c0.4 0 0.9 0.1 1.3 0.1 0.2 0 0.4 0.1 0.6 0.1 0.6 0.1 1.1 0.2 1.6 0.3 0.1 0 0.2 0 0.2 0.1l1.8 0.6c0.2 0.1 0.3 0.1 0.5 0.2 0.4 0.2 0.8 0.3 1.2 0.5 0.3 0.2 0.7 0.3 1 0.5l-182.3-99c-0.2-0.1-0.5-0.3-0.7-0.4-0.1 0-0.2-0.1-0.3-0.1-0.4-0.2-0.8-0.4-1.2-0.5-0.2-0.1-0.3-0.1-0.5-0.2l-1.8-0.6h-0.2c-0.5-0.1-1.1-0.2-1.6-0.3-0.2 0-0.4-0.1-0.6-0.1-0.4-0.1-0.9-0.1-1.3-0.1H506.3c-0.7 0-1.4 0.1-2 0.2-0.6 0.1-1.1 0.2-1.7 0.3-0.1 0-0.3 0.1-0.4 0.1-0.5 0.1-1 0.3-1.5 0.4h-0.1c-0.5 0.2-1.1 0.3-1.6 0.5-0.1 0.1-0.3 0.1-0.4 0.2-0.5 0.2-0.9 0.4-1.4 0.6 0 0-0.1 0-0.1 0.1-0.6 0.3-1.2 0.6-1.8 1-0.1 0.1-0.2 0.1-0.3 0.1-0.6 0.3-1.1 0.7-1.7 1.1 0 0-0.1 0.1-0.2 0.1s-0.1 0.1-0.2 0.1c-0.4 0.3-0.9 0.6-1.3 1h-0.1c-0.4 0.3-0.9 0.7-1.3 1.1 0 0-0.1 0.1-0.2 0.1l-0.2 0.2c-0.3 0.3-0.6 0.6-0.9 0.8l-0.3 0.3c-0.4 0.4-0.7 0.8-1.1 1.2l-0.1 0.1-0.2 0.2c-0.3 0.3-0.6 0.6-0.8 1-0.1 0.1-0.2 0.3-0.3 0.4-0.3 0.3-0.5 0.7-0.8 1l-0.2 0.2v0.1c-0.3 0.5-0.6 0.9-0.9 1.4-0.1 0.1-0.1 0.2-0.2 0.3-0.2 0.4-0.5 0.8-0.7 1.2 0 0.1-0.1 0.2-0.1 0.2s0 0.1-0.1 0.1l-0.9 1.8c-0.1 0.1-0.1 0.2-0.2 0.4-0.3 0.6-0.5 1.2-0.8 1.9-0.1 0.2-0.1 0.4-0.2 0.6-0.1 0.2-0.1 0.4-0.2 0.6-0.1 0.2-0.1 0.5-0.2 0.7-0.1 0.2-0.1 0.4-0.2 0.6-0.1 0.2-0.1 0.5-0.2 0.7 0 0.2-0.1 0.4-0.1 0.6-0.1 0.2-0.1 0.5-0.2 0.7 0 0.2-0.1 0.4-0.1 0.6 0 0.3-0.1 0.5-0.1 0.8 0 0.2-0.1 0.4-0.1 0.6 0 0.3-0.1 0.5-0.1 0.8 0 0.2 0 0.4-0.1 0.5 0 0.3 0 0.6-0.1 0.9V53.4l-0.1 37.5 182.3 99.2 0.1-37.5v-1.4-0.4c0.3-0.6 0.3-0.9 0.3-1.2z" fill="#00B794" p-id="10860"></path><path d="M579.2 201.4l-182.3-99.2 82.5-11.6 182.3 99.2z" fill="#F7D59F" p-id="10861"></path><path d="M554.8 140.9c13.6-1.9 24.5 8.4 24.5 23.1l-0.1 37.5v15.6c0 14.7-11 28-24.6 30-13.6 1.9-24.5-8.4-24.5-23.1v-15.6l0.1-37.5c0-14.7 11-28.1 24.6-30z" fill="#50E6CC" p-id="10862"></path><path d="M530.3 168.1c0-0.2 0-0.4 0.1-0.6 0-0.3 0.1-0.5 0.1-0.8 0-0.2 0.1-0.4 0.1-0.6 0-0.2 0.1-0.5 0.1-0.7 0-0.2 0.1-0.4 0.1-0.6 0-0.2 0.1-0.5 0.1-0.7 0-0.2 0.1-0.4 0.2-0.6 0.1-0.2 0.1-0.5 0.2-0.7 0.1-0.2 0.1-0.4 0.2-0.6 0.1-0.2 0.1-0.5 0.2-0.7 0.1-0.2 0.1-0.4 0.2-0.6 0.1-0.2 0.1-0.4 0.2-0.7 0.2-0.6 0.5-1.2 0.8-1.9 0.1-0.1 0.1-0.2 0.2-0.4l0.9-1.8c0.1-0.1 0.1-0.2 0.2-0.4 0.2-0.4 0.4-0.8 0.7-1.2 0.1-0.1 0.1-0.2 0.2-0.4 0.3-0.5 0.6-0.9 0.9-1.4 0.1-0.1 0.1-0.2 0.2-0.3 0.2-0.3 0.5-0.7 0.8-1 0.1-0.1 0.2-0.3 0.3-0.4 0.3-0.3 0.5-0.7 0.8-1 0.1-0.1 0.1-0.2 0.2-0.3 0.4-0.4 0.7-0.8 1.1-1.2l0.3-0.3c0.3-0.3 0.6-0.6 0.9-0.8l0.3-0.3c0.4-0.4 0.8-0.7 1.3-1.1h0.1c0.4-0.3 0.9-0.6 1.3-1 0.1-0.1 0.2-0.2 0.3-0.2 0.6-0.4 1.1-0.7 1.7-1.1 0.1-0.1 0.2-0.1 0.3-0.1 0.6-0.3 1.2-0.7 1.8-1 0.1 0 0.1 0 0.2-0.1 0.5-0.2 0.9-0.4 1.4-0.6 0.1-0.1 0.3-0.1 0.4-0.2 0.5-0.2 1.1-0.4 1.6-0.5h0.1c0.5-0.2 1-0.3 1.5-0.4 0.1 0 0.3-0.1 0.4-0.1 0.6-0.1 1.1-0.2 1.7-0.3 0.7-0.1 1.4-0.2 2-0.2h2.7c0.4 0 0.9 0.1 1.3 0.1 0.2 0 0.4 0.1 0.6 0.1 0.6 0.1 1.1 0.2 1.6 0.3 0.1 0 0.2 0 0.2 0.1l1.8 0.6c0.2 0.1 0.3 0.1 0.5 0.2 0.4 0.2 0.8 0.3 1.2 0.5 0.3 0.2 0.7 0.3 1 0.5L385.6 43.9c-0.2-0.1-0.5-0.3-0.7-0.4-0.1 0-0.2-0.1-0.3-0.1-0.4-0.2-0.8-0.4-1.2-0.5-0.2-0.1-0.3-0.1-0.5-0.2l-1.8-0.6h-0.2c-0.5-0.1-1.1-0.2-1.6-0.3-0.2 0-0.4-0.1-0.6-0.1-0.4-0.1-0.9-0.1-1.3-0.1H374.7c-0.7 0-1.4 0.1-2 0.2-0.6 0.1-1.1 0.2-1.7 0.3-0.1 0-0.3 0.1-0.4 0.1-0.5 0.1-1 0.3-1.5 0.4h-0.1c-0.5 0.2-1.1 0.3-1.6 0.5-0.1 0.1-0.3 0.1-0.4 0.2-0.5 0.2-0.9 0.4-1.4 0.6 0 0-0.1 0-0.1 0.1-0.6 0.3-1.2 0.6-1.8 1-0.1 0.1-0.2 0.1-0.3 0.1-0.6 0.3-1.1 0.7-1.7 1.1-0.1 0-0.1 0.1-0.2 0.1s-0.1 0.1-0.2 0.1c-0.4 0.3-0.9 0.6-1.3 1h-0.1c-0.4 0.3-0.9 0.7-1.3 1.1 0 0-0.1 0.1-0.2 0.1l-0.2 0.2c-0.3 0.3-0.6 0.6-0.9 0.8l-0.3 0.3c-0.4 0.4-0.7 0.8-1.1 1.2l-0.1 0.1-0.2 0.2c-0.3 0.3-0.6 0.6-0.8 1-0.1 0.1-0.2 0.3-0.3 0.4-0.3 0.3-0.5 0.7-0.8 1l-0.2 0.2v0.1c-0.3 0.5-0.6 0.9-0.9 1.4-0.1 0.1-0.1 0.2-0.2 0.4-0.2 0.4-0.5 0.8-0.7 1.2 0 0.1-0.1 0.2-0.1 0.2s0 0.1-0.1 0.1l-0.9 1.8c-0.1 0.1-0.1 0.2-0.2 0.3-0.3 0.6-0.5 1.2-0.8 1.9-0.1 0.2-0.1 0.4-0.2 0.6-0.1 0.2-0.1 0.4-0.2 0.6-0.1 0.2-0.1 0.5-0.2 0.7-0.1 0.2-0.1 0.4-0.2 0.6-0.1 0.2-0.1 0.5-0.2 0.7-0.1 0.2-0.1 0.4-0.2 0.6-0.1 0.2-0.1 0.5-0.1 0.7 0 0.2-0.1 0.4-0.1 0.6 0 0.2-0.1 0.5-0.1 0.7 0 0.2-0.1 0.4-0.1 0.6 0 0.3-0.1 0.5-0.1 0.8 0 0.2 0 0.4-0.1 0.6 0 0.3 0 0.6-0.1 0.9V72l-0.1 37.5 182.3 99.2 0.1-37.5v-1.4-0.5c0.2-0.6 0.3-0.9 0.3-1.2z" fill="#00B794" p-id="10863"></path><path d="M447.5 219.9l-182.4-99.2 82.6-11.6 182.4 99.2z" fill="#F7D59F" p-id="10864"></path><path d="M773.9 257.8c5.9-0.8 10.7 3.7 10.7 10l-0.2 100.1c0 6.3-4.8 12.2-10.7 13l-438.8 61.7c-5.9 0.8-10.7-3.7-10.7-10l0.2-100.1c0-6.3 4.8-12.2 10.7-13l438.8-61.7z" fill="#8ADCFF" p-id="10865"></path><path d="M423 159.4c13.6-1.9 24.5 8.4 24.5 23.1l-0.1 37.5v15.6c0 14.7-11 28-24.6 30-13.6 1.9-24.5-8.4-24.5-23.1v-15.6l0.1-37.5c0.1-14.7 11-28.1 24.6-30z" fill="#50E6CC" p-id="10866"></path><path d="M398.6 186.6c0-0.2 0-0.4 0.1-0.6 0-0.3 0.1-0.5 0.1-0.8 0-0.2 0.1-0.4 0.1-0.6 0-0.2 0.1-0.5 0.1-0.7 0-0.2 0.1-0.4 0.1-0.6 0-0.2 0.1-0.5 0.1-0.7 0-0.2 0.1-0.4 0.2-0.6 0.1-0.2 0.1-0.5 0.2-0.7 0.1-0.2 0.1-0.4 0.2-0.6 0.1-0.2 0.1-0.5 0.2-0.7 0.1-0.2 0.1-0.4 0.2-0.6 0.1-0.2 0.1-0.4 0.2-0.7 0.2-0.6 0.5-1.2 0.8-1.9 0.1-0.1 0.1-0.2 0.2-0.3l0.9-1.8c0.1-0.1 0.1-0.2 0.2-0.4 0.2-0.4 0.4-0.8 0.7-1.2 0.1-0.1 0.1-0.2 0.2-0.3 0.3-0.5 0.6-0.9 0.9-1.4 0.1-0.1 0.1-0.2 0.2-0.3 0.2-0.3 0.5-0.7 0.8-1 0.1-0.1 0.2-0.3 0.3-0.4 0.3-0.3 0.5-0.7 0.8-1 0.1-0.1 0.1-0.2 0.2-0.2 0.4-0.4 0.7-0.8 1.1-1.2l0.3-0.3c0.3-0.3 0.6-0.6 0.9-0.8l0.3-0.3c0.4-0.4 0.8-0.7 1.3-1.1l0.1-0.1c0.4-0.3 0.8-0.6 1.3-0.9 0.1-0.1 0.2-0.2 0.3-0.2 0.6-0.4 1.1-0.7 1.7-1.1 0.1-0.1 0.2-0.1 0.3-0.2 0.6-0.3 1.2-0.7 1.8-1 0.1 0 0.1 0 0.2-0.1 0.5-0.2 0.9-0.4 1.4-0.6 0.1-0.1 0.3-0.1 0.4-0.2 0.5-0.2 1-0.4 1.6-0.5h0.1c0.5-0.2 1-0.3 1.5-0.4 0.1 0 0.3-0.1 0.4-0.1 0.6-0.1 1.1-0.2 1.7-0.3 0.7-0.1 1.4-0.2 2-0.2h2.7c0.4 0 0.9 0.1 1.3 0.1 0.2 0 0.4 0.1 0.6 0.1 0.6 0.1 1.1 0.2 1.6 0.3 0.1 0 0.2 0 0.2 0.1l1.8 0.6c0.2 0.1 0.3 0.1 0.5 0.2 0.4 0.2 0.8 0.3 1.2 0.5 0.3 0.2 0.7 0.3 1 0.5L253.9 62.5c-0.2-0.1-0.5-0.3-0.7-0.4-0.1 0-0.2-0.1-0.3-0.1-0.4-0.2-0.8-0.4-1.2-0.5-0.2-0.1-0.3-0.1-0.5-0.2l-1.8-0.6h-0.2c-0.5-0.1-1.1-0.2-1.6-0.3-0.2 0-0.4-0.1-0.6-0.1-0.4-0.1-0.9-0.1-1.3-0.1H243c-0.7 0-1.4 0.1-2 0.2-0.6 0.1-1.1 0.2-1.7 0.3-0.1 0-0.3 0.1-0.4 0.1-0.5 0.1-1 0.2-1.5 0.4h-0.1c-0.5 0.2-1.1 0.3-1.6 0.5-0.1 0.1-0.3 0.1-0.4 0.2-0.5 0.2-0.9 0.4-1.4 0.6 0 0-0.1 0-0.1 0.1-0.6 0.3-1.2 0.6-1.8 1-0.1 0.1-0.2 0.1-0.3 0.2-0.6 0.3-1.1 0.7-1.7 1.1 0 0-0.1 0.1-0.2 0.1s-0.1 0.1-0.2 0.1c-0.4 0.3-0.9 0.6-1.3 1h-0.1c-0.4 0.3-0.9 0.7-1.3 1.1 0 0-0.1 0.1-0.2 0.1l-0.2 0.2c-0.3 0.3-0.6 0.6-0.9 0.8l-0.3 0.3c-0.4 0.4-0.7 0.8-1.1 1.2l-0.1 0.1-0.2 0.2c-0.3 0.3-0.6 0.6-0.8 1-0.1 0.1-0.2 0.3-0.3 0.4-0.3 0.3-0.5 0.7-0.8 1l-0.2 0.2v0.1c-0.3 0.5-0.6 0.9-0.9 1.4-0.1 0.1-0.1 0.2-0.2 0.3-0.2 0.4-0.5 0.8-0.7 1.2 0 0.1-0.1 0.2-0.1 0.2s0 0.1-0.1 0.1l-0.9 1.8c-0.1 0.1-0.1 0.2-0.2 0.3-0.3 0.6-0.5 1.2-0.8 1.9-0.1 0.2-0.1 0.4-0.2 0.6-0.1 0.2-0.1 0.4-0.2 0.6-0.1 0.2-0.1 0.5-0.2 0.7-0.1 0.2-0.1 0.4-0.2 0.6-0.1 0.2-0.1 0.5-0.2 0.7-0.1 0.2-0.1 0.4-0.2 0.6-0.1 0.2-0.1 0.5-0.1 0.7 0 0.2-0.1 0.4-0.1 0.6 0 0.2-0.1 0.5-0.1 0.7 0 0.2-0.1 0.4-0.1 0.6 0 0.3-0.1 0.5-0.1 0.8 0 0.2 0 0.4-0.1 0.6 0 0.3 0 0.6-0.1 0.9v1.9l-0.1 37.5 182.3 99.2 0.1-37.5v-1.4-0.5c0.2-0.7 0.2-1 0.3-1.3z" fill="#00B794" p-id="10867"></path><path d="M321.2 237.7l-182.4-99.2 77.2-10.9 182.4 99.2z" fill="#F7D59F" p-id="10868"></path><path d="M270.7 934.4l1.1-587.8 0.2-49c0-0.9 0-1.8 0.1-2.7 0-0.3 0-0.6 0.1-0.9 0-0.6 0.1-1.2 0.1-1.8 0-0.4 0.1-0.7 0.1-1.1 0.1-0.5 0.1-1.1 0.2-1.6 0.1-0.4 0.1-0.8 0.2-1.1l0.3-1.5c0.1-0.4 0.2-0.8 0.2-1.2l0.3-1.5 0.3-1.2c0.1-0.5 0.2-0.9 0.4-1.4 0.1-0.4 0.2-0.8 0.4-1.2 0.1-0.5 0.3-0.9 0.4-1.4 0.1-0.4 0.3-0.8 0.4-1.2 0.2-0.5 0.3-0.9 0.5-1.4 0.1-0.2 0.2-0.5 0.3-0.7 0.2-0.5 0.4-1.1 0.6-1.6 0.1-0.3 0.2-0.6 0.4-0.9 0.2-0.5 0.4-1 0.6-1.4 0.1-0.3 0.3-0.6 0.4-0.9 0.2-0.5 0.5-1 0.7-1.4 0.1-0.3 0.3-0.5 0.4-0.8 0.1-0.3 0.3-0.5 0.4-0.8 0.4-0.8 0.9-1.6 1.4-2.4 0.1-0.2 0.3-0.5 0.4-0.7 0.6-1 1.2-1.9 1.8-2.8 0.1-0.2 0.2-0.3 0.4-0.5 0.5-0.7 1-1.4 1.6-2.1 0.2-0.3 0.4-0.5 0.6-0.8 0.5-0.7 1.1-1.3 1.6-2 0.1-0.2 0.3-0.3 0.4-0.5 0.7-0.8 1.4-1.6 2.2-2.3 0.2-0.2 0.4-0.4 0.6-0.5 0.6-0.6 1.2-1.2 1.8-1.7 0.2-0.2 0.5-0.4 0.7-0.6 0.8-0.7 1.7-1.5 2.6-2.2l0.2-0.2c0.8-0.6 1.7-1.3 2.5-1.9l0.9-0.6 0.9-0.6c0.4-0.3 0.8-0.5 1.2-0.8 0.3-0.2 0.6-0.4 0.9-0.5 0.4-0.3 0.9-0.5 1.3-0.7 0.3-0.2 0.6-0.3 0.8-0.5 0.5-0.3 1-0.5 1.4-0.7 0.2-0.1 0.5-0.3 0.7-0.4l2.1-0.9c0.2-0.1 0.3-0.1 0.5-0.2 0.5-0.2 1.1-0.4 1.7-0.6 0.2-0.1 0.4-0.2 0.6-0.2 0.6-0.2 1.2-0.4 1.9-0.6 0.1 0 0.2-0.1 0.3-0.1 0.7-0.2 1.5-0.4 2.2-0.6 0.2-0.1 0.4-0.1 0.6-0.1 0.6-0.1 1.1-0.3 1.7-0.4 0.2 0 0.4-0.1 0.7-0.1 0.8-0.1 1.5-0.3 2.3-0.4L139 138.5c-0.8 0.1-1.5 0.2-2.3 0.4-0.2 0-0.4 0.1-0.7 0.1-0.6 0.1-1.1 0.2-1.7 0.4-0.2 0-0.4 0.1-0.6 0.1-0.7 0.2-1.5 0.4-2.2 0.6-0.1 0-0.2 0.1-0.3 0.1-0.6 0.2-1.3 0.4-1.9 0.6-0.2 0.1-0.4 0.2-0.6 0.2-0.6 0.2-1.1 0.4-1.7 0.6-0.2 0.1-0.3 0.1-0.5 0.2-0.6 0.3-1.3 0.6-1.9 0.9 0 0-0.1 0-0.1 0.1-0.2 0.1-0.5 0.2-0.7 0.4-0.5 0.2-1 0.5-1.4 0.7-0.3 0.2-0.6 0.3-0.8 0.5-0.4 0.2-0.9 0.5-1.3 0.7-0.3 0.2-0.6 0.4-0.9 0.5-0.4 0.2-0.8 0.5-1.2 0.8l-0.9 0.6c-0.2 0.1-0.4 0.2-0.6 0.4-0.1 0.1-0.2 0.2-0.4 0.3-0.9 0.6-1.7 1.2-2.5 1.9l-0.2 0.2c-0.9 0.7-1.7 1.4-2.6 2.2-0.1 0.1-0.2 0.2-0.3 0.2-0.1 0.1-0.3 0.2-0.4 0.4-0.6 0.6-1.2 1.1-1.8 1.7-0.2 0.2-0.4 0.4-0.6 0.5-0.7 0.8-1.5 1.5-2.2 2.3l-0.1 0.1c-0.1 0.1-0.2 0.3-0.3 0.4-0.6 0.6-1.1 1.3-1.7 2-0.2 0.3-0.4 0.5-0.6 0.8-0.5 0.7-1.1 1.4-1.6 2.1-0.1 0.1-0.2 0.3-0.3 0.4l-0.1 0.1c-0.6 0.9-1.3 1.9-1.8 2.8-0.1 0.2-0.3 0.5-0.4 0.7-0.5 0.8-0.9 1.6-1.4 2.4-0.1 0.2-0.2 0.3-0.3 0.5-0.1 0.1-0.1 0.2-0.2 0.3-0.1 0.3-0.3 0.5-0.4 0.8-0.2 0.5-0.5 0.9-0.7 1.4-0.1 0.3-0.3 0.6-0.4 0.9-0.2 0.5-0.4 1-0.6 1.4-0.1 0.3-0.3 0.6-0.4 0.9-0.2 0.5-0.4 1.1-0.6 1.6-0.1 0.2-0.2 0.5-0.3 0.7 0 0.1-0.1 0.1-0.1 0.2-0.1 0.4-0.3 0.8-0.4 1.2-0.1 0.4-0.3 0.8-0.4 1.2-0.1 0.5-0.3 0.9-0.4 1.4-0.1 0.4-0.2 0.8-0.4 1.2-0.1 0.5-0.2 0.9-0.4 1.4l-0.3 1.2-0.3 1.5c-0.1 0.4-0.2 0.8-0.2 1.2-0.1 0.5-0.2 1-0.2 1.5-0.1 0.4-0.1 0.8-0.2 1.1-0.1 0.5-0.1 1.1-0.2 1.6 0 0.4-0.1 0.7-0.1 1.1-0.1 0.6-0.1 1.2-0.1 1.8 0 0.3 0 0.6-0.1 0.9 0 0.9-0.1 1.8-0.1 2.7l-0.2 49-1.1 587.8c0 18.8 9.1 34.1 22.8 41.6l182.3 99.2c-13.6-7.6-22.7-22.9-22.7-41.8z" fill="#F7D59F" p-id="10869"></path><path d="M715 808.2z" fill="#DDD26F" p-id="10870"></path></svg>