<?xml version="1.0" standalone="no"?><!DOCTYPE svg PUBLIC "-//W3C//DTD SVG 1.1//EN" "http://www.w3.org/Graphics/SVG/1.1/DTD/svg11.dtd"><svg t="1682668710800" class="icon" viewBox="0 0 1024 1024" version="1.1" xmlns="http://www.w3.org/2000/svg" p-id="8171" xmlns:xlink="http://www.w3.org/1999/xlink" width="600" height="600"><path d="M186.56 128h114.048c15.728 0 27.76 14.048 26.24 29.84l-0.944 6.24c-0.32 2.512-0.48 4.928-0.496 7.2 0 28.32 19.28 53.52 37.648 53.52h291.632c16.72 0 35.824-25.472 35.808-53.52 0-2.32-0.16-4.72-0.48-7.216l-0.928-6.224C687.568 142.048 699.6 128 715.328 128h112.896C911.424 128 960 182.544 960 266.32V790.88c0 92.608-46.656 137.12-137.6 137.12H192.368C105.728 928 64 879.744 64 790.848V266.32C64 177.2 100.176 128 186.56 128z" fill="#FFBD27" p-id="8172"></path><path d="M404.88 96C379.936 96 360 117.44 360 143.936c0 26.56 19.984 48.064 44.88 48.064h209.056c23.68 0 43.664-21.504 43.664-48.064C657.6 117.44 637.664 96 612.672 96H404.88z" fill="#333333" p-id="8173"></path><path d="M492.32 695.44a34.336 34.336 0 0 1-24.368-10.128l-137.872-138.416a34.752 34.752 0 0 1 0-48.96 34.368 34.368 0 0 1 48.736 0l113.504 113.968 216.864-217.744a34.304 34.304 0 0 1 48.736 0c13.44 13.504 13.44 35.392 0 48.912l-241.232 242.24a34.4 34.4 0 0 1-24.368 10.128z" fill="#FFFFFF" p-id="8174"></path></svg>