<?xml version="1.0" standalone="no"?><!DOCTYPE svg PUBLIC "-//W3C//DTD SVG 1.1//EN" "http://www.w3.org/Graphics/SVG/1.1/DTD/svg11.dtd"><svg t="1682669262976" class="icon" viewBox="0 0 1024 1024" version="1.1" xmlns="http://www.w3.org/2000/svg" p-id="14017" xmlns:xlink="http://www.w3.org/1999/xlink" width="600" height="600"><path d="M778.53 953.52H120c-30.93 0-56-25.07-56-56V238.99c0-30.93 25.07-56 56-56h658.53c30.93 0 56 25.07 56 56v658.53c0 30.93-25.07 56-56 56z" fill="#8C9EFF" p-id="14018"></path><path d="M515.23 686.4L344.09 515.26 780.66 78.68c10.93-10.93 28.66-10.93 39.6 0L951.8 210.22c10.93 10.93 10.93 28.66 0 39.6L515.23 686.4z" fill="#FFD600" p-id="14019"></path><path d="M271.27 733.7l72.81-218.44L515.23 686.4l-218.44 72.81c-15.77 5.25-30.77-9.75-25.52-25.51z" fill="#FFFFFF" p-id="14020"></path></svg>